{"title":"The Best Of Me 2014 CAM XviD-INFERNO","uid":11609444,"size":1389686026,"categoryP":"video","categoryS":"movies","magnet":"?xt=urn:btih:f223404420b5c292a8706e4c7332c3cfbfd27f3c&amp;dn=The+Best+Of+Me+2014+CAM+XviD-INFERNO&amp;tr=udp%3A%2F%2Ftracker.openbittorrent.com%3A80&amp;tr=udp%3A%2F%2Fopen.demonii.com%3A1337&amp;tr=udp%3A%2F%2Ftracker.coppersurfer.tk%3A6969&amp;tr=udp%3A%2F%2Fexodus.desync.com%3A6969","seeders":2,"leechers":0,"uploader":"TvTeam","files":4,"time":1417434837,"description":" &lt;a href=&quot;https://www.torrenting.com&quot; rel=&quot;nofollow&quot; target=&quot;_NEW&quot;&gt;https://www.torrenting.com&lt;/a&gt;\n\nSign up is OPEN - for time being. Come and have fun.\n\n------------------------------------------------------------------[IMG]http://lookpic.com/O/i2/389/b7mQDVh.png[/IMG]\n\n[IMG]http://lookpic.com/O/i2/1825/9U6ZMbYX.jpeg[/IMG]\n\nSource: Pimp/russian video ... THANKS\n &lt;a href=&quot;\nhttp://www.imdb.com/title/tt1972779/&quot; rel=&quot;nofollow&quot; target=&quot;_NEW&quot;&gt;\nhttp://www.imdb.com/title/tt1972779/&lt;/a&gt;\n\nFormat                           : AVI\nFormat/Info                      : Audio Video Interleave\nFile size                        : 1.28 GiB\nDuration                         : 1h 50mn\nOverall bit rate                 : 1 652 Kbps\nWriting library                  : VirtualDub build 35491/release\n\nVideo\nID                               : 0\nFormat                           : MPEG-4 Visual\nFormat profile                   : Advanced Simple@L5\nFormat settings, BVOP            : Yes\nFormat settings, QPel            : No\nFormat settings, GMC             : No warppoints\nFormat settings, Matrix          : Default (H.263)\nMuxing mode                      : Packed bitstream\nCodec ID                         : XVID\nCodec ID/Hint                    : XviD\nDuration                         : 1h 50mn\nBit rate                         : 1 500 Kbps\nWidth                            : 720 pixels\nHeight                           : 304 pixels\nDisplay aspect ratio             : 2.35:1\nFrame rate                       : 59.940 fps\nColor space                      : YUV\nChroma subsampling               : 4:2:0\nBit depth                        : 8 bits\nScan type                        : Progressive\nBits/(Pixel*Frame)               : 0.114\nStream size                      : 1.16 GiB (91%)\nWriting library                  : XviD 1.2.1 (UTC 2008-12-04)\n\nAudio\nID                               : 1\nFormat                           : MPEG Audio\nFormat version                   : Version 1\nFormat profile                   : Layer 3\nMode                             : Joint stereo\nMode extension                   : MS Stereo\nCodec ID                         : 55\nCodec ID/Hint                    : MP3\nDuration                         : 1h 50mn\nBit rate mode                    : Constant\nBit rate                         : 128 Kbps\nChannel(s)                       : 2 channels\nSampling rate                    : 48.0 KHz\nStream size                      : 102 MiB (8%)\nAlignment                        : Split accross interleaves\nInterleave, duration             : 17 ms (1.00 video frame)\nInterleave, preload duration     : 500 ms\n\nWorkdone:\nUsed pimp's video as the source which had the russian video. Which was one of the best CAM'S we seen in awhile. Would of used the direct source, but kept getting errors downloading. First we resize and fix perspective, adjusted saturation, contrast, levels and used MSU denoiser and sharpen to clean it up a bit better.\n\nAUDIO:\nAudio on this isnt the greatest but we did what we could with it, so enjoy!\n\nOUR RATING:\nV8 A5-6\n\n[IMG]http://lookpic.com/O/i2/637/k40MpTo9.jpeg[/IMG]\n\n[IMG]http://lookpic.com/O/i2/479/iSqLq9Mh.png[/IMG]\n[IMG]http://lookpic.com/O/i2/1448/CSJIvFPw.png[/IMG]\n[IMG]http://lookpic.com/O/i2/363/NUgyW5k.png[/IMG]\n[IMG]http://lookpic.com/O/i2/1645/JqEDsBUl.png[/IMG]\n[IMG]http://lookpic.com/O/i2/129/gsOsuKrG.png[/IMG]\n[IMG]http://lookpic.com/O/i2/507/UqxumSLw.png[/IMG]\n[IMG]http://lookpic.com/O/i2/493/HrkaAmgt.png[/IMG]\n[IMG]http://lookpic.com/O/i2/838/CArxzaso.png[/IMG]\n\nGreets go out too:\n\nTHC, Hive, CM8, BHRG, and all who put work in\n\n[IMG]http://www.myimg.us/images/02.20.12/24265.gif[/IMG]","torrent":{"xt":"urn:btih:f223404420b5c292a8706e4c7332c3cfbfd27f3c","amp;dn":"The+Best+Of+Me+2014+CAM+XviD-INFERNO","amp;tr":["udp%3A%2F%2Ftracker.openbittorrent.com%3A80","udp%3A%2F%2Fopen.demonii.com%3A1337","udp%3A%2F%2Ftracker.coppersurfer.tk%3A6969","udp%3A%2F%2Fexodus.desync.com%3A6969"],"infoHash":"f223404420b5c292a8706e4c7332c3cfbfd27f3c","infoHashBuffer":{"type":"Buffer","data":[242,35,64,68,32,181,194,146,168,112,110,76,115,50,195,207,191,210,127,60]},"announce":[],"urlList":[]}}